# xmcd CD database file
#
# Track frame offsets:
#	150
#	12330
#	25905
#	42787
#	56272
#	76302
#	88932
#	106067
#	126102
#	138422
#	152140
#	167405
#	181930
#	198307
#
# Disc length: 2815 seconds
#
# Revision: 0
# Processed by: cddbd v1.4PL0 Copyright (c) Steve Scherf et al.
# Submitted via: CDex 1.50beta10
#
DISCID=a70afd0e
DTITLE=Waylon Thibodeaux - In Jackson Square
DYEAR=1998
DGENRE=Country
TTITLE0=In Jackson Square
TTITLE1=When We Turn Out the Lights
TTITLE2=A Cheap Imitation of You
TTITLE3=Come Back Baby
TTITLE4=Marie Laveaux
TTITLE5=Goin' Down The River Road
TTITLE6=Good Ole' Cajun Music
TTITLE7=Tell Me What I Mean To You
TTITLE8=Miss Baptiste
TTITLE9=Be' Be' Creole
TTITLE10=I'm Going Down to Bourbon Street
TTITLE11=My Femme Est Jalouse
TTITLE12=Here's To Love
TTITLE13=My Baby Don't Wear No Drawers
EXTD=YEAR: 1998
EXTT0=
EXTT1=
EXTT2=
EXTT3=
EXTT4=
EXTT5=
EXTT6=
EXTT7=
EXTT8=
EXTT9=
EXTT10=
EXTT11=
EXTT12=
EXTT13=
PLAYORDER=
